<svg width="103" height="78" viewBox="0 0 103 78" fill="none" xmlns="http://www.w3.org/2000/svg">
<path fillRule="evenodd" clipRule="evenodd" d="M74.5 23C74.5 35.7025 64.2025 46 51.5 46C38.7975 46 28.5 35.7025 28.5 23C28.5 10.2975 38.7975 0 51.5 0C64.2025 0 74.5 10.2975 74.5 23ZM51.6066 26.2689C55.8458 20.2741 56.0328 16.6409 51.6066 10.2222C47.0958 16.7779 47.6773 20.2527 51.6066 26.2689ZM49.5936 34.0779C50.2674 26.7666 48.6129 23.5267 41.5703 20.1811C40.9417 28.1138 43.1826 30.8324 49.5936 34.0779ZM53.6471 34.0779C52.9733 26.7666 54.6279 23.5267 61.6705 20.1811C62.299 28.1138 60.0582 30.8324 53.6471 34.0779Z" fill="#010005"/>
<path d="M1.5 73V59H3.94V73H1.5ZM15.8092 66.68V73H13.3692V67.32C13.3692 66.9267 13.2726 66.57 13.0792 66.25C12.8859 65.9233 12.6259 65.6667 12.2992 65.48C11.9792 65.2867 11.6226 65.19 11.2292 65.19C10.8359 65.19 10.4759 65.2867 10.1492 65.48C9.82922 65.6667 9.57255 65.9233 9.37922 66.25C9.19255 66.57 9.09922 66.9267 9.09922 67.32V73H6.65922L6.64922 63H9.08922L9.09922 63.89C9.43922 63.53 9.84589 63.2467 10.3192 63.04C10.7926 62.8267 11.3026 62.72 11.8492 62.72C12.5759 62.72 13.2392 62.9 13.8392 63.26C14.4392 63.6133 14.9159 64.09 15.2692 64.69C15.6292 65.2833 15.8092 65.9467 15.8092 66.68ZM20.6316 60.9V63H23.3616V65.44H20.6316V73H18.1916V65.44H17.1016V63H18.1916V60.9C18.1916 60.3267 18.3316 59.8033 18.6116 59.33C18.8982 58.85 19.2816 58.47 19.7616 58.19C20.2416 57.9033 20.7716 57.76 21.3516 57.76C21.7716 57.76 22.1882 57.8467 22.6016 58.02C23.0149 58.1933 23.3816 58.46 23.7016 58.82L21.9416 60.54C21.8816 60.4267 21.7949 60.3433 21.6816 60.29C21.5749 60.23 21.4649 60.2 21.3516 60.2C21.1582 60.2 20.9882 60.27 20.8416 60.41C20.7016 60.5433 20.6316 60.7067 20.6316 60.9ZM29.2133 73.26C28.2933 73.26 27.4533 73.0233 26.6933 72.55C25.9399 72.0767 25.3366 71.4433 24.8833 70.65C24.4366 69.85 24.2133 68.9667 24.2133 68C24.2133 67.2667 24.3433 66.5833 24.6033 65.95C24.8633 65.31 25.2199 64.75 25.6733 64.27C26.1333 63.7833 26.6666 63.4033 27.2733 63.13C27.8799 62.8567 28.5266 62.72 29.2133 62.72C30.1333 62.72 30.9699 62.9567 31.7233 63.43C32.4833 63.9033 33.0866 64.54 33.5333 65.34C33.9866 66.14 34.2133 67.0267 34.2133 68C34.2133 68.7267 34.0833 69.4067 33.8233 70.04C33.5633 70.6733 33.2033 71.2333 32.7433 71.72C32.2899 72.2 31.7599 72.5767 31.1533 72.85C30.5533 73.1233 29.9066 73.26 29.2133 73.26ZM29.2133 70.82C29.6999 70.82 30.1366 70.69 30.5233 70.43C30.9099 70.17 31.2133 69.8267 31.4333 69.4C31.6599 68.9733 31.7733 68.5067 31.7733 68C31.7733 67.48 31.6566 67.0067 31.4233 66.58C31.1966 66.1467 30.8866 65.8033 30.4933 65.55C30.1066 65.29 29.6799 65.16 29.2133 65.16C28.7333 65.16 28.2999 65.29 27.9133 65.55C27.5266 65.81 27.2199 66.1567 26.9933 66.59C26.7666 67.0233 26.6533 67.4933 26.6533 68C26.6533 68.5267 26.7699 69.0033 27.0033 69.43C27.2366 69.8567 27.5466 70.1967 27.9333 70.45C28.3266 70.6967 28.7533 70.82 29.2133 70.82ZM35.7803 73L35.7703 63H38.2103L38.2203 63.89C38.5603 63.53 38.967 63.2467 39.4403 63.04C39.9136 62.8267 40.4236 62.72 40.9703 62.72C41.337 62.72 41.7036 62.7733 42.0703 62.88L41.1103 65.34C40.857 65.24 40.6036 65.19 40.3503 65.19C39.957 65.19 39.597 65.2867 39.2703 65.48C38.9503 65.6667 38.6936 65.9233 38.5003 66.25C38.3136 66.57 38.2203 66.9267 38.2203 67.32V73H35.7803ZM43.2313 73V63H45.6713V63.89C46.0113 63.53 46.4179 63.2467 46.8913 63.04C47.3646 62.8267 47.8746 62.72 48.4213 62.72C49.1146 62.72 49.7513 62.8833 50.3313 63.21C50.9179 63.5367 51.3846 63.9733 51.7313 64.52C52.0846 63.9733 52.5513 63.5367 53.1313 63.21C53.7113 62.8833 54.3479 62.72 55.0413 62.72C55.7746 62.72 56.4379 62.9 57.0313 63.26C57.6313 63.6133 58.1079 64.09 58.4613 64.69C58.8213 65.2833 59.0013 65.9467 59.0013 66.68V73H56.5613V67.33C56.5613 66.9433 56.4646 66.59 56.2713 66.27C56.0846 65.9433 55.8313 65.6833 55.5113 65.49C55.1979 65.29 54.8446 65.19 54.4513 65.19C54.0579 65.19 53.7013 65.2867 53.3813 65.48C53.0679 65.6667 52.8146 65.92 52.6213 66.24C52.4279 66.56 52.3313 66.9233 52.3313 67.33V73H49.8913V67.33C49.8913 66.9233 49.7979 66.56 49.6113 66.24C49.4246 65.92 49.1713 65.6667 48.8513 65.48C48.5313 65.2867 48.1746 65.19 47.7813 65.19C47.3946 65.19 47.0413 65.29 46.7213 65.49C46.4013 65.6833 46.1446 65.9433 45.9513 66.27C45.7646 66.59 45.6713 66.9433 45.6713 67.33V73H43.2313ZM68.3494 63H70.7894V73H68.3494L68.2394 71.76C67.966 72.2067 67.6027 72.57 67.1494 72.85C66.7027 73.1233 66.1727 73.26 65.5594 73.26C64.8194 73.26 64.126 73.12 63.4794 72.84C62.8327 72.56 62.2627 72.1733 61.7694 71.68C61.2827 71.1867 60.8994 70.6167 60.6194 69.97C60.346 69.3233 60.2094 68.63 60.2094 67.89C60.2094 67.1767 60.3394 66.5067 60.5994 65.88C60.866 65.2533 61.236 64.7033 61.7094 64.23C62.1827 63.7567 62.7294 63.3867 63.3494 63.12C63.9694 62.8533 64.636 62.72 65.3494 62.72C66.0094 62.72 66.5994 62.8667 67.1194 63.16C67.646 63.4533 68.0927 63.8267 68.4594 64.28L68.3494 63ZM65.4994 70.91C66.0194 70.91 66.4794 70.78 66.8794 70.52C67.2794 70.26 67.5927 69.91 67.8194 69.47C68.046 69.0233 68.1594 68.5333 68.1594 68C68.1594 67.46 68.046 66.97 67.8194 66.53C67.5927 66.0833 67.276 65.73 66.8694 65.47C66.4694 65.21 66.0127 65.08 65.4994 65.08C64.986 65.08 64.516 65.2133 64.0894 65.48C63.6694 65.74 63.3327 66.09 63.0794 66.53C62.8327 66.97 62.7094 67.46 62.7094 68C62.7094 68.54 62.836 69.03 63.0894 69.47C63.3427 69.91 63.6794 70.26 64.0994 70.52C64.526 70.78 64.9927 70.91 65.4994 70.91ZM81.942 66.68V73H79.502V67.32C79.502 66.9267 79.4054 66.57 79.212 66.25C79.0187 65.9233 78.7587 65.6667 78.432 65.48C78.112 65.2867 77.7554 65.19 77.362 65.19C76.9687 65.19 76.6087 65.2867 76.282 65.48C75.962 65.6667 75.7054 65.9233 75.512 66.25C75.3254 66.57 75.232 66.9267 75.232 67.32V73H72.792L72.782 63H75.222L75.232 63.89C75.572 63.53 75.9787 63.2467 76.452 63.04C76.9254 62.8267 77.4354 62.72 77.982 62.72C78.7087 62.72 79.372 62.9 79.972 63.26C80.572 63.6133 81.0487 64.09 81.402 64.69C81.762 65.2833 81.942 65.9467 81.942 66.68ZM83.5344 69.3V63H85.9744V68.66C85.9744 69.0533 86.071 69.4133 86.2644 69.74C86.4577 70.06 86.7144 70.3167 87.0344 70.51C87.361 70.6967 87.7177 70.79 88.1044 70.79C88.5044 70.79 88.8644 70.6967 89.1844 70.51C89.5044 70.3167 89.761 70.06 89.9544 69.74C90.1477 69.4133 90.2444 69.0533 90.2444 68.66V63H92.6844L92.6944 73H90.2544L90.2444 72.09C89.8977 72.45 89.4877 72.7367 89.0144 72.95C88.541 73.1567 88.0344 73.26 87.4944 73.26C86.7677 73.26 86.1044 73.0833 85.5044 72.73C84.9044 72.37 84.4244 71.8933 84.0644 71.3C83.711 70.7 83.5344 70.0333 83.5344 69.3ZM97.6461 73.18C97.1261 73.1467 96.6228 73.0433 96.1361 72.87C95.6561 72.69 95.2294 72.4467 94.8561 72.14C94.4828 71.8333 94.1961 71.4667 93.9961 71.04L96.0561 70.16C96.1361 70.2933 96.2661 70.4367 96.4461 70.59C96.6261 70.7367 96.8394 70.86 97.0861 70.96C97.3394 71.06 97.6161 71.11 97.9161 71.11C98.1694 71.11 98.4094 71.0767 98.6361 71.01C98.8694 70.9367 99.0561 70.8267 99.1961 70.68C99.3428 70.5333 99.4161 70.3433 99.4161 70.11C99.4161 69.8633 99.3294 69.6733 99.1561 69.54C98.9894 69.4 98.7761 69.2967 98.5161 69.23C98.2628 69.1567 98.0161 69.09 97.7761 69.03C97.1428 68.9033 96.5528 68.7067 96.0061 68.44C95.4661 68.1733 95.0294 67.83 94.6961 67.41C94.3694 66.9833 94.2061 66.47 94.2061 65.87C94.2061 65.21 94.3794 64.64 94.7261 64.16C95.0794 63.68 95.5361 63.31 96.0961 63.05C96.6628 62.79 97.2728 62.66 97.9261 62.66C98.7194 62.66 99.4461 62.8267 100.106 63.16C100.773 63.4867 101.299 63.95 101.686 64.55L99.7561 65.69C99.6628 65.53 99.5328 65.3833 99.3661 65.25C99.1994 65.11 99.0094 64.9967 98.7961 64.91C98.5828 64.8167 98.3594 64.7633 98.1261 64.75C97.8261 64.7367 97.5528 64.7633 97.3061 64.83C97.0594 64.8967 96.8594 65.01 96.7061 65.17C96.5594 65.33 96.4861 65.5433 96.4861 65.81C96.4861 66.0633 96.5861 66.2533 96.7861 66.38C96.9861 66.5 97.2261 66.5933 97.5061 66.66C97.7928 66.7267 98.0661 66.8 98.3261 66.88C98.9128 67.0733 99.4628 67.31 99.9761 67.59C100.496 67.87 100.913 68.2133 101.226 68.62C101.539 69.0267 101.689 69.5133 101.676 70.08C101.676 70.7267 101.483 71.2933 101.096 71.78C100.709 72.26 100.209 72.6267 99.5961 72.88C98.9894 73.1333 98.3394 73.2333 97.6461 73.18Z" fill="#010005"/>
</svg>
