<svg width="16" height="16" viewBox="0 0 16 16" fill="none" xmlns="http://www.w3.org/2000/svg">
<path d="M2.66602 4C2.66602 3.63181 2.96449 3.33333 3.33268 3.33333H12.666C13.0342 3.33333 13.3327 3.63181 13.3327 4C13.3327 4.36819 13.0342 4.66667 12.666 4.66667H3.33268C2.96449 4.66667 2.66602 4.36819 2.66602 4Z" fill="black"/>
<path d="M3.99935 8C3.99935 7.63181 4.29783 7.33333 4.66602 7.33333H11.3327C11.7009 7.33333 11.9993 7.63181 11.9993 8C11.9993 8.36819 11.7009 8.66667 11.3327 8.66667H4.66602C4.29783 8.66667 3.99935 8.36819 3.99935 8Z" fill="black"/>
<path d="M5.99935 11.3333C5.63116 11.3333 5.33268 11.6318 5.33268 12C5.33268 12.3682 5.63116 12.6667 5.99935 12.6667H9.99935C10.3675 12.6667 10.666 12.3682 10.666 12C10.666 11.6318 10.3675 11.3333 9.99935 11.3333H5.99935Z" fill="black"/>
</svg>
