<svg width="45" height="45" viewBox="0 0 45 45" fill="none" xmlns="http://www.w3.org/2000/svg">
<rect y="0.142822" width="44.7144" height="44.7144" rx="5.58929" fill="#515D65" fillOpacity="0.15"/>
<path d="M27 14C27 13.4477 27.4477 13 28 13C28.5523 13 29 13.4477 29 14V17.2C29 17.7523 28.5523 18.2 28 18.2H24.8884C24.3362 18.2 23.8884 17.7523 23.8884 17.2C23.8884 16.6477 24.3362 16.2 24.8884 16.2H25.5735C24.4881 15.4407 23.181 15 21.7775 15C18.0608 15 15 18.1072 15 22C15 22.5523 14.5523 23 14 23C13.4477 23 13 22.5523 13 22C13 17.0562 16.9034 13 21.7775 13C23.7372 13 25.5433 13.6585 27 14.7659V14Z" fill="#010005"/>
<path d="M17 30C17 30.5523 16.5523 31 16 31C15.4477 31 15 30.5523 15 30V26.8C15 26.2477 15.4477 25.8 16 25.8H19.1116C19.6638 25.8 20.1116 26.2477 20.1116 26.8C20.1116 27.3523 19.6638 27.8 19.1116 27.8H18.4265C19.5119 28.5593 20.819 29 22.2225 29C25.9392 29 29 25.8928 29 22C29 21.4477 29.4477 21 30 21C30.5523 21 31 21.4477 31 22C31 26.9438 27.0966 31 22.2225 31C20.2628 31 18.4567 30.3415 17 29.2341V30Z" fill="#010005"/>
<path d="M27 14C27 13.4477 27.4477 13 28 13C28.5523 13 29 13.4477 29 14V17.2C29 17.7523 28.5523 18.2 28 18.2H24.8884C24.3362 18.2 23.8884 17.7523 23.8884 17.2C23.8884 16.6477 24.3362 16.2 24.8884 16.2H25.5735C24.4881 15.4407 23.181 15 21.7775 15C18.0608 15 15 18.1072 15 22C15 22.5523 14.5523 23 14 23C13.4477 23 13 22.5523 13 22C13 17.0562 16.9034 13 21.7775 13C23.7372 13 25.5433 13.6585 27 14.7659V14Z" stroke="#010005" strokeLinecap="round" strokeLinejoin="round"/>
<path d="M17 30C17 30.5523 16.5523 31 16 31C15.4477 31 15 30.5523 15 30V26.8C15 26.2477 15.4477 25.8 16 25.8H19.1116C19.6638 25.8 20.1116 26.2477 20.1116 26.8C20.1116 27.3523 19.6638 27.8 19.1116 27.8H18.4265C19.5119 28.5593 20.819 29 22.2225 29C25.9392 29 29 25.8928 29 22C29 21.4477 29.4477 21 30 21C30.5523 21 31 21.4477 31 22C31 26.9438 27.0966 31 22.2225 31C20.2628 31 18.4567 30.3415 17 29.2341V30Z" stroke="#010005" strokeLinecap="round" strokeLinejoin="round"/>
</svg>
