<svg width="45" height="45" viewBox="0 0 45 45" fill="none" xmlns="http://www.w3.org/2000/svg">
<rect width="44.7144" height="44.7144" rx="5.58929" fill="#515D65" fillOpacity="0.15"/>
<path fillRule="evenodd" clipRule="evenodd" d="M21.9996 13.8333C19.4223 13.8333 17.3329 15.9227 17.3329 18.5C17.3329 21.0773 19.4223 23.1666 21.9996 23.1666C24.5769 23.1666 26.6663 21.0773 26.6663 18.5C26.6663 15.9227 24.5769 13.8333 21.9996 13.8333ZM19.6663 18.5C19.6663 17.2113 20.7109 16.1666 21.9996 16.1666C23.2883 16.1666 24.3329 17.2113 24.3329 18.5C24.3329 19.7886 23.2883 20.8333 21.9996 20.8333C20.7109 20.8333 19.6663 19.7886 19.6663 18.5Z" fill="#010005"/>
<path fillRule="evenodd" clipRule="evenodd" d="M21.9996 33.6666C20.6732 33.6666 18.7608 33.3532 17.3094 32.6862C16.5975 32.359 15.8336 31.8737 15.383 31.1477C15.1451 30.7644 14.9948 30.3126 14.9997 29.8097C15.0046 29.3117 15.1608 28.8393 15.4166 28.4065C16.5861 26.4272 19.0124 24.3333 21.9996 24.3333C24.9868 24.3333 27.4131 26.4272 28.5827 28.4065C28.8384 28.8393 28.9946 29.3117 28.9995 29.8097C29.0044 30.3126 28.8541 30.7644 28.6162 31.1477C28.1656 31.8737 27.4017 32.359 26.6898 32.6862C25.2384 33.3532 23.326 33.6666 21.9996 33.6666ZM17.4254 29.5935C17.3361 29.7447 17.3331 29.8198 17.3329 29.8326C17.3328 29.841 17.3326 29.8642 17.3655 29.9173C17.4581 30.0665 17.7272 30.3102 18.2838 30.566C19.3695 31.065 20.9366 31.3333 21.9996 31.3333C23.0626 31.3333 24.6297 31.065 25.7155 30.566C26.2721 30.3102 26.5411 30.0665 26.6337 29.9173C26.6667 29.8642 26.6664 29.8416 26.6663 29.8331C26.6662 29.8204 26.6632 29.7447 26.5738 29.5935C25.6671 28.0589 23.8937 26.6666 21.9996 26.6666C20.1055 26.6666 18.3322 28.0589 17.4254 29.5935Z" fill="#010005"/>
<path fillRule="evenodd" clipRule="evenodd" d="M10.9163 22C10.9163 20.067 12.4833 18.5 14.4163 18.5C16.3493 18.5 17.9163 20.067 17.9163 22C17.9163 23.933 16.3493 25.5 14.4163 25.5C12.4833 25.5 10.9163 23.933 10.9163 22ZM14.4163 20.8333C13.7719 20.8333 13.2496 21.3556 13.2496 22C13.2496 22.6443 13.7719 23.1666 14.4163 23.1666C15.0606 23.1666 15.5829 22.6443 15.5829 22C15.5829 21.3556 15.0606 20.8333 14.4163 20.8333Z" fill="#010005"/>
<path d="M11.378 30.6853C11.0915 31.2625 10.3914 31.4981 9.81425 31.2117C9.2371 30.9252 9.00145 30.2251 9.28792 29.648C9.71653 28.7844 10.3653 27.9174 11.1814 27.254C11.9978 26.5903 13.044 26.0833 14.238 26.0833C14.8823 26.0833 15.4046 26.6056 15.4046 27.25C15.4046 27.8943 14.8823 28.4166 14.238 28.4166C13.7235 28.4166 13.1805 28.6359 12.6532 29.0646C12.1256 29.4935 11.676 30.0848 11.378 30.6853Z" fill="#010005"/>
<path fillRule="evenodd" clipRule="evenodd" d="M26.4447 22C26.4447 20.067 28.0117 18.5 29.9447 18.5C31.8777 18.5 33.4447 20.067 33.4447 22C33.4447 23.933 31.8777 25.5 29.9447 25.5C28.0117 25.5 26.4447 23.933 26.4447 22ZM29.9447 20.8333C29.3003 20.8333 28.778 21.3556 28.778 22C28.778 22.6443 29.3003 23.1666 29.9447 23.1666C30.589 23.1666 31.1113 22.6443 31.1113 22C31.1113 21.3556 30.589 20.8333 29.9447 20.8333Z" fill="#010005"/>
<path d="M34.7164 29.648C35.0029 30.2251 34.7673 30.9252 34.1901 31.2117C33.613 31.4981 32.9129 31.2625 32.6264 30.6853C32.3283 30.0848 31.8788 29.4935 31.3511 29.0646C30.8238 28.6359 30.2809 28.4166 29.7664 28.4166C29.122 28.4166 28.5997 27.8943 28.5997 27.25C28.5997 26.6056 29.122 26.0833 29.7664 26.0833C30.9603 26.0833 32.0065 26.5903 32.823 27.254C33.6391 27.9174 34.2878 28.7844 34.7164 29.648Z" fill="#010005"/>
</svg>
