<svg width="16" height="16" viewBox="0 0 16 16" fill="none" xmlns="http://www.w3.org/2000/svg">
<g clipPath="url(#clip0_266_4763)">
<path d="M14.9848 0.615387H9.10784C8.86169 0.615387 8.61553 0.769233 8.61553 1.01539V1.93846C8.61553 2.18462 8.83092 2.46154 9.10784 2.46154H11.5386C11.8155 2.46154 11.9694 2.76923 11.754 2.95385L6.52323 8.18462C6.33861 8.36923 6.33861 8.64616 6.52323 8.83077L7.16938 9.47693C7.354 9.66154 7.63092 9.66154 7.81553 9.47693L13.0463 4.24616C13.2309 4.06154 13.5386 4.18462 13.5386 4.46154V6.89231C13.5386 7.13846 13.7848 7.41539 14.0309 7.41539H14.9232C15.1694 7.41539 15.3848 7.13846 15.3848 6.89231V1.04616C15.3848 0.769233 15.2309 0.615387 14.9848 0.615387Z" fill="black"/>
<path d="M11.1691 7.84617L10.1229 8.92309C9.93831 9.10771 9.846 9.32309 9.846 9.56925V13.0769C9.846 13.3231 9.63062 13.5385 9.38447 13.5385H2.92293C2.67677 13.5385 2.46139 13.3231 2.46139 13.0769V6.6154C2.46139 6.36925 2.67677 6.15386 2.92293 6.15386H6.46139C6.70754 6.15386 6.9537 6.06156 7.10754 5.87694L8.1537 4.83079C8.33831 4.64617 8.21523 4.30771 7.93831 4.30771H1.846C1.16908 4.30771 0.615234 4.86155 0.615234 5.53848V14.1539C0.615234 14.8308 1.16908 15.3846 1.846 15.3846H10.4614C11.1383 15.3846 11.6922 14.8308 11.6922 14.1539V8.06156C11.6922 7.78463 11.3537 7.66156 11.1691 7.84617Z" fill="black"/>
</g>
<defs>
<clipPath id="clip0_266_4763">
<rect width="16" height="16" fill="white"/>
</clipPath>
</defs>
</svg>
