<svg width="17" height="16" viewBox="0 0 17 16" fill="none" xmlns="http://www.w3.org/2000/svg">
<path d="M15.0377 6.69498H14.5007V6.66732H8.50065V9.33398H12.2683C11.7187 10.8863 10.2417 12.0007 8.50065 12.0007C6.29165 12.0007 4.50065 10.2097 4.50065 8.00065C4.50065 5.79165 6.29165 4.00065 8.50065 4.00065C9.52032 4.00065 10.448 4.38532 11.1543 5.01365L13.04 3.12798C11.8493 2.01832 10.2567 1.33398 8.50065 1.33398C4.81898 1.33398 1.83398 4.31898 1.83398 8.00065C1.83398 11.6823 4.81898 14.6673 8.50065 14.6673C12.1823 14.6673 15.1673 11.6823 15.1673 8.00065C15.1673 7.55365 15.1213 7.11732 15.0377 6.69498Z" fill="#FFC107"/>
<path d="M2.60156 4.89765L4.7919 6.50398C5.38456 5.03665 6.8199 4.00065 8.49956 4.00065C9.51923 4.00065 10.4469 4.38532 11.1532 5.01365L13.0389 3.12798C11.8482 2.01832 10.2556 1.33398 8.49956 1.33398C5.9389 1.33398 3.71823 2.77965 2.60156 4.89765Z" fill="#FF3D00"/>
<path d="M8.49945 14.6669C10.2215 14.6669 11.7861 14.0079 12.9691 12.9362L10.9058 11.1902C10.214 11.7164 9.36861 12.0009 8.49945 12.0002C6.76545 12.0002 5.29312 10.8946 4.73845 9.35156L2.56445 11.0266C3.66779 13.1856 5.90845 14.6669 8.49945 14.6669Z" fill="#4CAF50"/>
<path d="M15.037 6.69368H14.5V6.66602H8.5V9.33268H12.2677C12.0047 10.0715 11.5311 10.7171 10.9053 11.1897L10.9063 11.189L12.9697 12.935C12.8237 13.0677 15.1667 11.3327 15.1667 7.99935C15.1667 7.55235 15.1207 7.11602 15.037 6.69368Z" fill="#1976D2"/>
</svg>