<svg width="425" height="20" viewBox="0 0 425 20" fill="none" xmlns="http://www.w3.org/2000/svg">
<path d="M207.42 16.256C204.268 16.256 202.284 13.968 202.284 10.336C202.284 6.672 204.268 4.384 207.42 4.384C210.572 4.384 212.556 6.672 212.556 10.336C212.556 13.968 210.572 16.256 207.42 16.256ZM203.692 10.336C203.692 13.28 205.036 14.944 207.42 14.944C209.804 14.944 211.148 13.28 211.148 10.336C211.148 7.376 209.804 5.696 207.42 5.696C205.036 5.696 203.692 7.376 203.692 10.336ZM218.948 4.64C221.332 4.64 222.82 5.952 222.82 8.064C222.82 9.424 221.908 10.416 220.868 10.704C222.003 10.896 222.5 11.472 222.612 12.656L222.916 16H221.556L221.284 12.784C221.188 11.76 220.484 11.408 218.82 11.408H216.004V16H214.66V4.64H218.948ZM216.004 10.096H218.948C220.532 10.096 221.411 9.36 221.411 8.032C221.411 6.704 220.532 5.952 218.948 5.952H216.004V10.096Z" fill="#010005"/>
<rect width="187" height="0.5" transform="matrix(1 0 0 -1 0.5 12)" fill="url(#paint0_linear_31_315)"/>
<rect width="187" height="0.5" transform="matrix(-1 0 0 -1 424.5 12)" fill="url(#paint1_linear_31_315)"/>
<defs>
<linearGradient id="paint0_linear_31_315" x1="187" y1="0.000499706" x2="0" y2="1.89934e-08" gradientUnits="userSpaceOnUse">
<stop stop-color="#515D65"/>
<stop offset="1" stop-color="#515D65" stop-opacity="0"/>
</linearGradient>
<linearGradient id="paint1_linear_31_315" x1="187" y1="0.000499706" x2="0" y2="1.89934e-08" gradientUnits="userSpaceOnUse">
<stop stop-color="#515D65"/>
<stop offset="1" stop-color="#515D65" stop-opacity="0"/>
</linearGradient>
</defs>
</svg>
