<svg width="35" height="36" viewBox="0 0 35 36" fill="none" xmlns="http://www.w3.org/2000/svg">
<path fillRule="evenodd" clipRule="evenodd" d="M35.5 18C35.5 27.9411 27.4411 36 17.5 36C7.55888 36 -0.5 27.9411 -0.5 18C-0.5 8.05888 7.55888 0 17.5 0C27.4411 0 35.5 8.05888 35.5 18ZM17.5834 20.5583C20.901 15.8667 21.0474 13.0233 17.5834 8C14.0532 13.1305 14.5083 15.8499 17.5834 20.5583ZM16.009 26.6697C16.5363 20.9478 15.2415 18.4122 9.72994 15.7939C9.23795 22.0021 10.9917 24.1297 16.009 26.6697ZM19.1803 26.6697C18.653 20.9478 19.9479 18.4122 25.4595 15.7939C25.9514 22.0021 24.1977 24.1297 19.1803 26.6697Z" fill="#010005"/>
</svg>
