<svg width="17" height="10" viewBox="0 0 17 10" fill="none" xmlns="http://www.w3.org/2000/svg">
<path fill-rule="evenodd" clip-rule="evenodd" d="M8.71342 8.69713C7.83582 9.43343 6.69743 9.87792 5.45348 9.87792C2.67784 9.87792 0.427734 7.66492 0.427734 4.93505C0.427734 2.20518 2.67784 -0.0078125 5.45348 -0.0078125C6.69744 -0.0078125 7.83584 0.43668 8.71344 1.17299C9.59104 0.436689 10.7294 -0.00779771 11.9734 -0.00779771C14.749 -0.00779771 16.9991 2.2052 16.9991 4.93507C16.9991 7.66493 14.749 9.87793 11.9734 9.87793C10.7294 9.87793 9.59102 9.43344 8.71342 8.69713Z" fill="#ED0006"/>
<path fill-rule="evenodd" clip-rule="evenodd" d="M8.71289 8.69713C9.79349 7.79052 10.4787 6.44149 10.4787 4.93505C10.4787 3.42862 9.79349 2.07958 8.71289 1.17297C9.59049 0.436673 10.7289 -0.0078125 11.9728 -0.0078125C14.7485 -0.0078125 16.9986 2.20518 16.9986 4.93505C16.9986 7.66492 14.7485 9.87792 11.9728 9.87792C10.7289 9.87792 9.59049 9.43343 8.71289 8.69713Z" fill="#F9A000"/>
<path fill-rule="evenodd" clip-rule="evenodd" d="M8.71304 8.69794C9.79363 7.79133 10.4788 6.44231 10.4788 4.93589C10.4788 3.42947 9.79363 2.08044 8.71304 1.17383C7.63246 2.08044 6.94727 3.42947 6.94727 4.93589C6.94727 6.44231 7.63246 7.79133 8.71304 8.69794Z" fill="#FF5E00"/>
</svg>
