<svg width="143" height="36" viewBox="0 0 143 36" fill="none" xmlns="http://www.w3.org/2000/svg">
<path fillRule="evenodd" clipRule="evenodd" d="M35.5 18C35.5 27.9411 27.4411 36 17.5 36C7.55888 36 -0.5 27.9411 -0.5 18C-0.5 8.05888 7.55888 0 17.5 0C27.4411 0 35.5 8.05888 35.5 18ZM17.5834 20.5583C20.901 15.8667 21.0474 13.0233 17.5834 8C14.0532 13.1305 14.5083 15.8499 17.5834 20.5583ZM16.009 26.6697C16.5363 20.9478 15.2415 18.4122 9.72994 15.7939C9.23795 22.0021 10.9917 24.1297 16.009 26.6697ZM19.1803 26.6697C18.653 20.9478 19.9479 18.4122 25.4595 15.7939C25.9514 22.0021 24.1977 24.1297 19.1803 26.6697Z" fill="#010005"/>
<path d="M41 25V11H43.44V25H41ZM55.3092 18.68V25H52.8692V19.32C52.8692 18.9267 52.7726 18.57 52.5792 18.25C52.3859 17.9233 52.1259 17.6667 51.7992 17.48C51.4792 17.2867 51.1226 17.19 50.7292 17.19C50.3359 17.19 49.9759 17.2867 49.6492 17.48C49.3292 17.6667 49.0726 17.9233 48.8792 18.25C48.6926 18.57 48.5992 18.9267 48.5992 19.32V25H46.1592L46.1492 15H48.5892L48.5992 15.89C48.9392 15.53 49.3459 15.2467 49.8192 15.04C50.2926 14.8267 50.8026 14.72 51.3492 14.72C52.0759 14.72 52.7392 14.9 53.3392 15.26C53.9392 15.6133 54.4159 16.09 54.7692 16.69C55.1292 17.2833 55.3092 17.9467 55.3092 18.68ZM60.1316 12.9V15H62.8616V17.44H60.1316V25H57.6916V17.44H56.6016V15H57.6916V12.9C57.6916 12.3267 57.8316 11.8033 58.1116 11.33C58.3982 10.85 58.7816 10.47 59.2616 10.19C59.7416 9.90333 60.2716 9.76 60.8516 9.76C61.2716 9.76 61.6882 9.84667 62.1016 10.02C62.5149 10.1933 62.8816 10.46 63.2016 10.82L61.4416 12.54C61.3816 12.4267 61.2949 12.3433 61.1816 12.29C61.0749 12.23 60.9649 12.2 60.8516 12.2C60.6582 12.2 60.4882 12.27 60.3416 12.41C60.2016 12.5433 60.1316 12.7067 60.1316 12.9ZM68.7133 25.26C67.7933 25.26 66.9533 25.0233 66.1933 24.55C65.4399 24.0767 64.8366 23.4433 64.3833 22.65C63.9366 21.85 63.7133 20.9667 63.7133 20C63.7133 19.2667 63.8433 18.5833 64.1033 17.95C64.3633 17.31 64.7199 16.75 65.1733 16.27C65.6333 15.7833 66.1666 15.4033 66.7733 15.13C67.3799 14.8567 68.0266 14.72 68.7133 14.72C69.6333 14.72 70.4699 14.9567 71.2233 15.43C71.9833 15.9033 72.5866 16.54 73.0333 17.34C73.4866 18.14 73.7133 19.0267 73.7133 20C73.7133 20.7267 73.5833 21.4067 73.3233 22.04C73.0633 22.6733 72.7033 23.2333 72.2433 23.72C71.7899 24.2 71.2599 24.5767 70.6533 24.85C70.0533 25.1233 69.4066 25.26 68.7133 25.26ZM68.7133 22.82C69.1999 22.82 69.6366 22.69 70.0233 22.43C70.4099 22.17 70.7133 21.8267 70.9333 21.4C71.1599 20.9733 71.2733 20.5067 71.2733 20C71.2733 19.48 71.1566 19.0067 70.9233 18.58C70.6966 18.1467 70.3866 17.8033 69.9933 17.55C69.6066 17.29 69.1799 17.16 68.7133 17.16C68.2333 17.16 67.7999 17.29 67.4133 17.55C67.0266 17.81 66.7199 18.1567 66.4933 18.59C66.2666 19.0233 66.1533 19.4933 66.1533 20C66.1533 20.5267 66.2699 21.0033 66.5033 21.43C66.7366 21.8567 67.0466 22.1967 67.4333 22.45C67.8266 22.6967 68.2533 22.82 68.7133 22.82ZM75.2803 25L75.2703 15H77.7103L77.7203 15.89C78.0603 15.53 78.467 15.2467 78.9403 15.04C79.4136 14.8267 79.9236 14.72 80.4703 14.72C80.837 14.72 81.2036 14.7733 81.5703 14.88L80.6103 17.34C80.357 17.24 80.1036 17.19 79.8503 17.19C79.457 17.19 79.097 17.2867 78.7703 17.48C78.4503 17.6667 78.1936 17.9233 78.0003 18.25C77.8136 18.57 77.7203 18.9267 77.7203 19.32V25H75.2803ZM82.7313 25V15H85.1713V15.89C85.5113 15.53 85.9179 15.2467 86.3913 15.04C86.8646 14.8267 87.3746 14.72 87.9213 14.72C88.6146 14.72 89.2513 14.8833 89.8313 15.21C90.4179 15.5367 90.8846 15.9733 91.2313 16.52C91.5846 15.9733 92.0513 15.5367 92.6313 15.21C93.2113 14.8833 93.8479 14.72 94.5413 14.72C95.2746 14.72 95.9379 14.9 96.5313 15.26C97.1313 15.6133 97.6079 16.09 97.9613 16.69C98.3213 17.2833 98.5013 17.9467 98.5013 18.68V25H96.0613V19.33C96.0613 18.9433 95.9646 18.59 95.7713 18.27C95.5846 17.9433 95.3313 17.6833 95.0113 17.49C94.6979 17.29 94.3446 17.19 93.9513 17.19C93.5579 17.19 93.2013 17.2867 92.8813 17.48C92.5679 17.6667 92.3146 17.92 92.1213 18.24C91.9279 18.56 91.8313 18.9233 91.8313 19.33V25H89.3913V19.33C89.3913 18.9233 89.2979 18.56 89.1113 18.24C88.9246 17.92 88.6713 17.6667 88.3513 17.48C88.0313 17.2867 87.6746 17.19 87.2813 17.19C86.8946 17.19 86.5413 17.29 86.2213 17.49C85.9013 17.6833 85.6446 17.9433 85.4513 18.27C85.2646 18.59 85.1713 18.9433 85.1713 19.33V25H82.7313ZM107.849 15H110.289V25H107.849L107.739 23.76C107.466 24.2067 107.103 24.57 106.649 24.85C106.203 25.1233 105.673 25.26 105.059 25.26C104.319 25.26 103.626 25.12 102.979 24.84C102.333 24.56 101.763 24.1733 101.269 23.68C100.783 23.1867 100.399 22.6167 100.119 21.97C99.846 21.3233 99.7094 20.63 99.7094 19.89C99.7094 19.1767 99.8394 18.5067 100.099 17.88C100.366 17.2533 100.736 16.7033 101.209 16.23C101.683 15.7567 102.229 15.3867 102.849 15.12C103.469 14.8533 104.136 14.72 104.849 14.72C105.509 14.72 106.099 14.8667 106.619 15.16C107.146 15.4533 107.593 15.8267 107.959 16.28L107.849 15ZM104.999 22.91C105.519 22.91 105.979 22.78 106.379 22.52C106.779 22.26 107.093 21.91 107.319 21.47C107.546 21.0233 107.659 20.5333 107.659 20C107.659 19.46 107.546 18.97 107.319 18.53C107.093 18.0833 106.776 17.73 106.369 17.47C105.969 17.21 105.513 17.08 104.999 17.08C104.486 17.08 104.016 17.2133 103.589 17.48C103.169 17.74 102.833 18.09 102.579 18.53C102.333 18.97 102.209 19.46 102.209 20C102.209 20.54 102.336 21.03 102.589 21.47C102.843 21.91 103.179 22.26 103.599 22.52C104.026 22.78 104.493 22.91 104.999 22.91ZM121.442 18.68V25H119.002V19.32C119.002 18.9267 118.905 18.57 118.712 18.25C118.519 17.9233 118.259 17.6667 117.932 17.48C117.612 17.2867 117.255 17.19 116.862 17.19C116.469 17.19 116.109 17.2867 115.782 17.48C115.462 17.6667 115.205 17.9233 115.012 18.25C114.825 18.57 114.732 18.9267 114.732 19.32V25H112.292L112.282 15H114.722L114.732 15.89C115.072 15.53 115.479 15.2467 115.952 15.04C116.425 14.8267 116.935 14.72 117.482 14.72C118.209 14.72 118.872 14.9 119.472 15.26C120.072 15.6133 120.549 16.09 120.902 16.69C121.262 17.2833 121.442 17.9467 121.442 18.68ZM123.034 21.3V15H125.474V20.66C125.474 21.0533 125.571 21.4133 125.764 21.74C125.958 22.06 126.214 22.3167 126.534 22.51C126.861 22.6967 127.218 22.79 127.604 22.79C128.004 22.79 128.364 22.6967 128.684 22.51C129.004 22.3167 129.261 22.06 129.454 21.74C129.648 21.4133 129.744 21.0533 129.744 20.66V15H132.184L132.194 25H129.754L129.744 24.09C129.398 24.45 128.988 24.7367 128.514 24.95C128.041 25.1567 127.534 25.26 126.994 25.26C126.268 25.26 125.604 25.0833 125.004 24.73C124.404 24.37 123.924 23.8933 123.564 23.3C123.211 22.7 123.034 22.0333 123.034 21.3ZM137.146 25.18C136.626 25.1467 136.123 25.0433 135.636 24.87C135.156 24.69 134.729 24.4467 134.356 24.14C133.983 23.8333 133.696 23.4667 133.496 23.04L135.556 22.16C135.636 22.2933 135.766 22.4367 135.946 22.59C136.126 22.7367 136.339 22.86 136.586 22.96C136.839 23.06 137.116 23.11 137.416 23.11C137.669 23.11 137.909 23.0767 138.136 23.01C138.369 22.9367 138.556 22.8267 138.696 22.68C138.843 22.5333 138.916 22.3433 138.916 22.11C138.916 21.8633 138.829 21.6733 138.656 21.54C138.489 21.4 138.276 21.2967 138.016 21.23C137.763 21.1567 137.516 21.09 137.276 21.03C136.643 20.9033 136.053 20.7067 135.506 20.44C134.966 20.1733 134.529 19.83 134.196 19.41C133.869 18.9833 133.706 18.47 133.706 17.87C133.706 17.21 133.879 16.64 134.226 16.16C134.579 15.68 135.036 15.31 135.596 15.05C136.163 14.79 136.773 14.66 137.426 14.66C138.219 14.66 138.946 14.8267 139.606 15.16C140.273 15.4867 140.799 15.95 141.186 16.55L139.256 17.69C139.163 17.53 139.033 17.3833 138.866 17.25C138.699 17.11 138.509 16.9967 138.296 16.91C138.083 16.8167 137.859 16.7633 137.626 16.75C137.326 16.7367 137.053 16.7633 136.806 16.83C136.559 16.8967 136.359 17.01 136.206 17.17C136.059 17.33 135.986 17.5433 135.986 17.81C135.986 18.0633 136.086 18.2533 136.286 18.38C136.486 18.5 136.726 18.5933 137.006 18.66C137.293 18.7267 137.566 18.8 137.826 18.88C138.413 19.0733 138.963 19.31 139.476 19.59C139.996 19.87 140.413 20.2133 140.726 20.62C141.039 21.0267 141.189 21.5133 141.176 22.08C141.176 22.7267 140.983 23.2933 140.596 23.78C140.209 24.26 139.709 24.6267 139.096 24.88C138.489 25.1333 137.839 25.2333 137.146 25.18Z" fill="#010005"/>
</svg>
