<svg width="40" height="40" viewBox="0 0 40 40" fill="none" xmlns="http://www.w3.org/2000/svg">
<path d="M14.4114 18.0892C14.086 17.7638 14.086 17.2362 14.4114 16.9107C14.7368 16.5853 15.2645 16.5853 15.5899 16.9107L18.3905 19.7113L19.4735 18.8268C19.8139 18.5488 20.3115 18.5829 20.6108 18.9046L23.3364 21.8346L24.3927 20.7078C24.7075 20.3721 25.2348 20.355 25.5706 20.6698C25.9064 20.9846 25.9234 21.512 25.6086 21.8477L23.9419 23.6255C23.784 23.794 23.5633 23.8893 23.3324 23.8889C23.1015 23.8884 22.8811 23.7922 22.7238 23.6231L19.9226 20.6118L18.8611 21.4788C18.5297 21.7494 18.0473 21.7251 17.7447 21.4226L14.4114 18.0892Z" fill="#010005"/>
<path fillRule="evenodd" clipRule="evenodd" d="M14.1673 12.5C12.3264 12.5 10.834 13.9924 10.834 15.8333V24.1667C10.834 26.0076 12.3264 27.5 14.1673 27.5H25.834C27.6749 27.5 29.1673 26.0076 29.1673 24.1667V15.8333C29.1673 13.9924 27.6749 12.5 25.834 12.5H14.1673ZM12.5007 15.8333C12.5007 14.9129 13.2468 14.1667 14.1673 14.1667H25.834C26.7545 14.1667 27.5006 14.9129 27.5006 15.8333V24.1667C27.5006 25.0871 26.7545 25.8333 25.834 25.8333H14.1673C13.2468 25.8333 12.5007 25.0871 12.5007 24.1667V15.8333Z" fill="#010005"/>
</svg>
