<svg width="17" height="6" viewBox="0 0 17 6" fill="none" xmlns="http://www.w3.org/2000/svg">
<path fill-rule="evenodd" clip-rule="evenodd" d="M4.02517 5.83818H2.63182L1.58697 1.79427C1.53738 1.60825 1.43208 1.44379 1.27718 1.36628C0.890633 1.1715 0.464678 1.01649 0 0.938303V0.782612H2.24458C2.55437 0.782612 2.78671 1.01649 2.82543 1.2881L3.36756 4.20511L4.76023 0.782612H6.11486L4.02517 5.83818ZM6.88932 5.83818H5.57341L6.65698 0.782612H7.97289L6.88932 5.83818ZM9.67536 2.18316C9.71408 1.91087 9.94642 1.75518 10.2175 1.75518C10.6434 1.71609 11.1074 1.79427 11.4947 1.98838L11.727 0.899889C11.3398 0.744198 10.9138 0.666016 10.5273 0.666016C9.25008 0.666016 8.32073 1.36629 8.32073 2.33817C8.32073 3.07754 8.97902 3.46575 9.4437 3.69963C9.94642 3.93283 10.14 4.08852 10.1013 4.32172C10.1013 4.67151 9.71408 4.82721 9.32753 4.82721C8.86285 4.82721 8.39817 4.71061 7.9729 4.51582L7.74056 5.60499C8.20524 5.79909 8.70796 5.87728 9.17264 5.87728C10.6047 5.91569 11.4947 5.21609 11.4947 4.16602C11.4947 2.84366 9.67536 2.76616 9.67536 2.18316ZM16.1 5.83818L15.0552 0.782612H13.9329C13.7005 0.782612 13.4682 0.938303 13.3907 1.1715L11.4559 5.83818H12.8106L13.081 5.09949H14.7454L14.9003 5.83818H16.1ZM14.1265 2.14407L14.513 4.04943H13.4294L14.1265 2.14407Z" fill="#172B85"/>
</svg>
